<?xml version="1.0" encoding="UTF-8"?>
<svg version="1.1" xmlns="http://www.w3.org/2000/svg" width="512" height="512">
<path d="M0 0 C0.82395264 0.60980713 0.82395264 0.60980713 1.66455078 1.23193359 C32.25171008 24.06558342 56.06783051 53.29854207 72 88 C72.30389648 88.65758301 72.60779297 89.31516602 72.92089844 89.99267578 C78.35197881 101.93003975 82.07152572 114.22901605 85 127 C85.21317871 127.92683594 85.42635742 128.85367188 85.64599609 129.80859375 C96.94182089 181.47736253 85.74410434 236.67804309 57.66796875 281.10791016 C51.47821378 290.69355735 44.53416845 299.44706035 37 308 C36.38640625 308.72445313 35.7728125 309.44890625 35.140625 310.1953125 C26.97341149 319.80151124 17.91262387 328.22991316 8 336 C7.02675781 336.79019531 6.05351562 337.58039063 5.05078125 338.39453125 C-27.00610475 363.935463 -65.85007297 379.12286871 -106 386 C-107.25039063 386.21527344 -108.50078125 386.43054688 -109.7890625 386.65234375 C-138.41883793 390.85178618 -167.69385994 389.35315943 -196.0390625 384 C-197.29916138 383.76845215 -197.29916138 383.76845215 -198.5847168 383.53222656 C-201 383 -201 383 -203.20629883 382.20996094 C-208.31138404 380.49886212 -211.09967006 381.13080768 -215.93359375 383.515625 C-218.1167259 384.73362698 -220.28418526 385.98002739 -222.4375 387.25 C-223.60297648 387.91155024 -224.76990837 388.57054255 -225.93823242 389.22705078 C-228.25666228 390.53470968 -230.56373983 391.85774269 -232.86816406 393.19042969 C-236.14978101 395.08654325 -239.45670967 396.92908836 -242.77758789 398.75512695 C-244.85273391 399.89714193 -246.92102164 401.05080732 -248.98828125 402.20703125 C-255.14588321 405.64477505 -261.3214372 409.05003247 -267.4961853 412.45684814 C-269.47399267 413.54814985 -271.45147719 414.64003499 -273.42895508 415.73193359 C-274.65052888 416.40596888 -275.87212612 417.07996171 -277.09375 417.75390625 C-278.72860352 418.65604858 -278.72860352 418.65604858 -280.39648438 419.57641602 C-284.61549028 421.88333869 -287.11121814 422.26189903 -292 422 C-294 420 -294 420 -294.19099426 416.75843811 C-294.17484781 415.34279695 -294.14781523 413.92725681 -294.11254883 412.51196289 C-294.090081 410.90991935 -294.06777529 409.30787354 -294.04560852 407.70582581 C-294.02268958 406.4277666 -294.02268958 406.4277666 -293.99930763 405.12388802 C-293.92725997 400.60564291 -293.91711612 396.08707924 -293.89648438 391.56835938 C-293.8669383 385.82017792 -293.81938778 380.0740293 -293.7019043 374.3269043 C-293.60856205 369.68127707 -293.57962375 365.03901466 -293.59229088 360.39251518 C-293.58551419 358.62901974 -293.55566352 356.86544462 -293.50144386 355.10276985 C-292.99660183 344.48786644 -292.99660183 344.48786644 -297.86132812 335.50721741 C-301.01685603 332.6426496 -304.43811177 330.32973449 -308 328 C-309.24162742 326.96337358 -310.46509828 325.90347852 -311.6484375 324.80078125 C-312.54820312 323.97964844 -313.44796875 323.15851563 -314.375 322.3125 C-318.9225745 318.12449081 -323.05998144 313.75975397 -327 309 C-327.71027344 308.20078125 -328.42054688 307.4015625 -329.15234375 306.578125 C-361.53563695 269.41868969 -379.49387672 221.34602619 -379.375 172.1875 C-379.37445618 171.33649719 -379.37391235 170.48549438 -379.37335205 169.60870361 C-379.20704722 112.71249459 -355.51741566 63.93211603 -317 23 C-316.38382813 22.34128906 -315.76765625 21.68257813 -315.1328125 21.00390625 C-310.65445763 16.36484486 -305.72177852 12.31835828 -300.66650391 8.32470703 C-299.51427057 7.40879463 -298.36848672 6.4847311 -297.22802734 5.55419922 C-273.01266208 -14.19063708 -244.90803586 -28.19435409 -215 -37 C-214.20480957 -37.23557617 -213.40961914 -37.47115234 -212.59033203 -37.71386719 C-206.776507 -39.39482876 -200.92708032 -40.78036704 -195 -42 C-194.04496582 -42.19754883 -193.08993164 -42.39509766 -192.10595703 -42.59863281 C-126.00521068 -55.57455443 -54.17196677 -40.0995517 0 0 Z " fill="#D8E4EC" transform="translate(401,68)"/>
<path d="M0 0 C0.82395264 0.60980713 0.82395264 0.60980713 1.66455078 1.23193359 C32.25171008 24.06558342 56.06783051 53.29854207 72 88 C72.30389648 88.65758301 72.60779297 89.31516602 72.92089844 89.99267578 C78.35197881 101.93003975 82.07152572 114.22901605 85 127 C85.21317871 127.92683594 85.42635742 128.85367188 85.64599609 129.80859375 C96.94182089 181.47736253 85.74410434 236.67804309 57.66796875 281.10791016 C51.47821378 290.69355735 44.53416845 299.44706035 37 308 C36.38640625 308.72445313 35.7728125 309.44890625 35.140625 310.1953125 C26.97341149 319.80151124 17.91262387 328.22991316 8 336 C7.02675781 336.79019531 6.05351562 337.58039063 5.05078125 338.39453125 C-27.00610475 363.935463 -65.85007297 379.12286871 -106 386 C-107.25039063 386.21527344 -108.50078125 386.43054688 -109.7890625 386.65234375 C-138.41883793 390.85178618 -167.69385994 389.35315943 -196.0390625 384 C-197.29916138 383.76845215 -197.29916138 383.76845215 -198.5847168 383.53222656 C-201 383 -201 383 -203.20629883 382.20996094 C-208.31138404 380.49886212 -211.09967006 381.13080768 -215.93359375 383.515625 C-218.1167259 384.73362698 -220.28418526 385.98002739 -222.4375 387.25 C-223.60297648 387.91155024 -224.76990837 388.57054255 -225.93823242 389.22705078 C-228.25666228 390.53470968 -230.56373983 391.85774269 -232.86816406 393.19042969 C-236.14978101 395.08654325 -239.45670967 396.92908836 -242.77758789 398.75512695 C-244.85273391 399.89714193 -246.92102164 401.05080732 -248.98828125 402.20703125 C-255.14588321 405.64477505 -261.3214372 409.05003247 -267.4961853 412.45684814 C-269.47399267 413.54814985 -271.45147719 414.64003499 -273.42895508 415.73193359 C-274.65052888 416.40596888 -275.87212612 417.07996171 -277.09375 417.75390625 C-278.72860352 418.65604858 -278.72860352 418.65604858 -280.39648438 419.57641602 C-284.61549028 421.88333869 -287.11121814 422.26189903 -292 422 C-294 420 -294 420 -294.19099426 416.75843811 C-294.17484781 415.34279695 -294.14781523 413.92725681 -294.11254883 412.51196289 C-294.090081 410.90991935 -294.06777529 409.30787354 -294.04560852 407.70582581 C-294.02268958 406.4277666 -294.02268958 406.4277666 -293.99930763 405.12388802 C-293.92725997 400.60564291 -293.91711612 396.08707924 -293.89648438 391.56835938 C-293.8669383 385.82017792 -293.81938778 380.0740293 -293.7019043 374.3269043 C-293.60856205 369.68127707 -293.57962375 365.03901466 -293.59229088 360.39251518 C-293.58551419 358.62901974 -293.55566352 356.86544462 -293.50144386 355.10276985 C-292.99660183 344.48786644 -292.99660183 344.48786644 -297.86132812 335.50721741 C-301.01685603 332.6426496 -304.43811177 330.32973449 -308 328 C-309.24162742 326.96337358 -310.46509828 325.90347852 -311.6484375 324.80078125 C-312.54820312 323.97964844 -313.44796875 323.15851563 -314.375 322.3125 C-318.9225745 318.12449081 -323.05998144 313.75975397 -327 309 C-327.71027344 308.20078125 -328.42054688 307.4015625 -329.15234375 306.578125 C-361.53563695 269.41868969 -379.49387672 221.34602619 -379.375 172.1875 C-379.37445618 171.33649719 -379.37391235 170.48549438 -379.37335205 169.60870361 C-379.20704722 112.71249459 -355.51741566 63.93211603 -317 23 C-316.38382813 22.34128906 -315.76765625 21.68257813 -315.1328125 21.00390625 C-310.65445763 16.36484486 -305.72177852 12.31835828 -300.66650391 8.32470703 C-299.51427057 7.40879463 -298.36848672 6.4847311 -297.22802734 5.55419922 C-273.01266208 -14.19063708 -244.90803586 -28.19435409 -215 -37 C-214.20480957 -37.23557617 -213.40961914 -37.47115234 -212.59033203 -37.71386719 C-206.776507 -39.39482876 -200.92708032 -40.78036704 -195 -42 C-194.04496582 -42.19754883 -193.08993164 -42.39509766 -192.10595703 -42.59863281 C-126.00521068 -55.57455443 -54.17196677 -40.0995517 0 0 Z M-216 -25 C-217.24837646 -24.62367432 -217.24837646 -24.62367432 -218.52197266 -24.23974609 C-249.64557123 -14.65804034 -277.87011306 1.93453135 -301.76171875 23.94921875 C-303.86296619 25.87444546 -306.01319306 27.72078303 -308.1875 29.5625 C-312.19634083 33.07720936 -315.6125876 36.88950534 -319 41 C-319.42796875 41.51030762 -319.8559375 42.02061523 -320.296875 42.54638672 C-344.88434042 71.93820235 -359.29031395 104.3469832 -366 142 C-366.18095215 142.97727051 -366.3619043 143.95454102 -366.54833984 144.96142578 C-368.0263251 153.56602569 -368.40241585 162.03061813 -368.375 170.75 C-368.3737915 171.46721222 -368.37258301 172.18442444 -368.37133789 172.92337036 C-368.12128598 228.07430213 -343.46690712 276.82809347 -305.09692383 315.21655273 C-298.80789066 321.36947601 -292.03819047 326.7398787 -285 332 C-283.08614588 333.91385412 -283.82470803 337.3710789 -283.79467773 339.90649414 C-283.78477814 340.62840439 -283.77487854 341.35031464 -283.76467896 342.09410095 C-283.73297701 344.49108551 -283.70827241 346.88808992 -283.68359375 349.28515625 C-283.66303171 350.94283069 -283.64203545 352.6004998 -283.62062073 354.25816345 C-283.5653225 358.62948295 -283.51594756 363.00085037 -283.46777344 367.37225342 C-283.41761484 371.82959274 -283.3618994 376.28686213 -283.30664062 380.74414062 C-283.19896432 389.4960347 -283.09754055 398.24798712 -283 407 C-279.56076054 405.64734028 -276.32075612 404.17964757 -273.0703125 402.41796875 C-271.645979 401.64718994 -271.645979 401.64718994 -270.19287109 400.86083984 C-269.18047363 400.3086377 -268.16807617 399.75643555 -267.125 399.1875 C-266.07521973 398.61725098 -265.02543945 398.04700195 -263.94384766 397.45947266 C-255.40738626 392.80588461 -246.93215992 388.04749808 -238.48876953 383.22729492 C-234.04445572 380.69425183 -229.60925779 378.22040658 -225 376 C-225 375.34 -225 374.68 -225 374 C-226.17175781 373.49210937 -227.34351563 372.98421875 -228.55078125 372.4609375 C-251.61050478 362.38949522 -251.61050478 362.38949522 -256 358 C-256.25 355.5 -256.25 355.5 -256 353 C-255.34 352.34 -254.68 351.68 -254 351 C-249.66904931 351.33628111 -246.32148438 352.59972169 -242.47265625 354.546875 C-241.44100342 355.05984131 -240.40935059 355.57280762 -239.34643555 356.10131836 C-238.26273682 356.6453833 -237.17903809 357.18944824 -236.0625 357.75 C-226.82474901 362.27311145 -217.94049021 366.27556935 -208 369 C-206.93048096 369.3101001 -206.93048096 369.3101001 -205.83935547 369.62646484 C-173.37568249 378.98505273 -138.20250763 379.67366794 -105 374 C-104.00274902 373.83902832 -103.00549805 373.67805664 -101.97802734 373.51220703 C-69.1635829 368.11656074 -37.03678658 355.53347497 -10 336 C-9.40558105 335.57090332 -8.81116211 335.14180664 -8.19873047 334.69970703 C-1.56544972 329.85365047 4.70056302 324.64525344 10.73828125 319.07421875 C12.78324667 317.19878414 14.87619475 315.40967467 17 313.625 C31.74092538 300.67887791 43.48054116 284.04224188 53 267 C53.34369629 266.40010254 53.68739258 265.80020508 54.04150391 265.18212891 C78.88835066 221.74970086 84.56983671 168.96941438 71.98022461 120.81689453 C63.25484566 89.398529 47.38061636 62.41505947 26 38 C24.93635074 36.70927955 23.87362367 35.41779758 22.8125 34.125 C20.18183319 31.06713088 17.2498048 28.47229221 14.17578125 25.8671875 C11.869273 23.88781417 9.66082974 21.82215806 7.4375 19.75 C-15.35578616 -0.6913234 -43.0002601 -14.7415521 -72 -24 C-72.82161621 -24.26941406 -73.64323242 -24.53882813 -74.48974609 -24.81640625 C-88.46736655 -29.35413208 -102.50262646 -31.73348544 -117.06005859 -33.61450195 C-119.17103702 -33.89130273 -121.27775807 -34.20133363 -123.38085938 -34.53271484 C-127.1849769 -35.02388328 -130.92886901 -35.19568019 -134.7578125 -35.23828125 C-135.49050354 -35.2480751 -136.22319458 -35.25786896 -136.97808838 -35.26795959 C-164.11806817 -35.55478024 -189.91476434 -32.97439373 -216 -25 Z " fill="#34373B" transform="translate(401,68)"/>
<path d="M0 0 C3.26310107 1.35299313 5.1509508 3.57235216 7.5625 6.0625 C8.73467245 7.22758576 9.90931344 8.39019135 11.0859375 9.55078125 C12.36983836 10.8254738 13.65369159 12.10021434 14.9375 13.375 C15.88882813 14.31375977 15.88882813 14.31375977 16.859375 15.27148438 C20.03011929 18.4260514 23.08992515 21.62086338 26.0078125 25.01171875 C29.81049136 29.41924749 33.9112482 33.48551031 38.0625 37.5625 C42.24235727 41.66758343 46.3555527 45.75632415 50.15625 50.21875 C53.33174626 53.92533972 56.78379555 56.97784331 60.5625 60.0625 C74.84151187 52.4827522 89.07120722 44.8478078 103.11547852 36.83911133 C109.88301402 32.98818051 116.70566378 29.25183315 123.5625 25.5625 C132.65298762 20.67047504 141.66859644 15.66023765 150.63867188 10.55078125 C152.39144219 9.5528724 154.14675972 8.55942225 155.90478516 7.57080078 C157.78072726 6.50617003 159.64394182 5.41896026 161.49755859 4.31591797 C162.46129395 3.75662598 163.4250293 3.19733398 164.41796875 2.62109375 C165.28446045 2.10732178 166.15095215 1.5935498 167.04370117 1.06420898 C170.06240902 -0.13631038 171.51623545 0.02447769 174.5625 1.0625 C176.5625 3.0625 176.5625 3.0625 176.5703125 6.28515625 C175.27363286 11.14519196 173.07881038 13.19610834 169.4375 16.5 C168.24038132 17.63742496 167.04505351 18.77673788 165.8515625 19.91796875 C164.99159668 20.73080322 164.99159668 20.73080322 164.11425781 21.56005859 C162.22950368 23.38491337 160.50608625 25.30989446 158.8125 27.3125 C155.65401115 31.03388785 152.21924656 34.42135879 148.74609375 37.84765625 C146.78275329 39.83909461 144.94170331 41.87552578 143.125 44 C140.40630752 47.1728592 137.53498325 50.12588382 134.5625 53.0625 C131.61066975 55.97876603 128.75861141 58.90855835 126.0625 62.0625 C122.58037024 66.13593481 118.78694574 69.85285118 114.9765625 73.6171875 C112.27498706 76.35373479 109.77171265 79.21229366 107.2734375 82.1328125 C104.8155504 84.90495001 102.16626396 87.46800689 99.52734375 90.06640625 C97.64019256 91.98357177 95.87564625 93.95825322 94.125 96 C91.55584729 98.99051716 88.86932744 101.79366684 86.0625 104.5625 C83.27628859 107.3110599 80.60941608 110.09109791 78.0625 113.0625 C75.51558392 116.03390209 72.84871141 118.8139401 70.0625 121.5625 C67.29689592 124.29079407 64.64962969 127.04766834 62.125 130 C59.30114051 133.25829941 56.41101141 136.43965419 53.4375 139.5625 C52.63054687 140.4184375 51.82359375 141.274375 50.9921875 142.15625 C48.5625 144.0625 48.5625 144.0625 46 144.5625 C42.90443503 143.92751231 41.82479309 142.86829338 39.6875 140.5625 C38.99914062 139.8303125 38.31078125 139.098125 37.6015625 138.34375 C35.15479533 135.60637064 32.73669758 132.84702081 30.34375 130.0625 C28.4882479 127.97912922 26.55026899 126.01968793 24.5625 124.0625 C21.31220017 120.86220478 18.31525755 117.52025424 15.34375 114.0625 C13.4882479 111.97912922 11.55026899 110.01968793 9.5625 108.0625 C6.31872105 104.86862534 3.32612329 101.53527473 0.36328125 98.08203125 C-2.20909687 95.19717336 -4.9628134 92.51244203 -7.73828125 89.82421875 C-9.4375 88.0625 -9.4375 88.0625 -11.4375 85.0625 C-15.62439594 85.59989633 -18.77391688 86.510452 -22.46484375 88.546875 C-23.88277222 89.32164185 -23.88277222 89.32164185 -25.3293457 90.11206055 C-26.33441162 90.67320557 -27.33947754 91.23435059 -28.375 91.8125 C-29.42969482 92.39233643 -30.48438965 92.97217285 -31.57104492 93.56958008 C-39.80015995 98.10823986 -47.97349329 102.74605919 -56.14038086 107.39550781 C-62.76777643 111.15661872 -69.46765405 114.74360387 -76.23120117 118.25244141 C-82.58950622 121.57022462 -88.82997148 125.07744989 -95.0625 128.625 C-97.94341275 130.25704535 -100.82516735 131.88758813 -103.70751953 133.51708984 C-105.47844573 134.51959054 -107.24775514 135.52495477 -109.01513672 136.53369141 C-111.33453002 137.85172814 -113.66486998 139.14760631 -116 140.4375 C-117.00764404 141.01866577 -117.00764404 141.01866577 -118.03564453 141.61157227 C-121.2232538 143.34585059 -123.17991402 144.07846974 -126.83984375 143.8515625 C-129.4375 143.0625 -129.4375 143.0625 -130.4375 142.0625 C-130.94601555 137.73749662 -130.97585167 135.76245452 -128.27734375 132.25390625 C-127.31957031 131.38636719 -126.36179687 130.51882813 -125.375 129.625 C-124.35355128 128.67262532 -123.33401945 127.7181906 -122.31640625 126.76171875 C-121.36636719 125.87097656 -120.41632813 124.98023438 -119.4375 124.0625 C-118.20557205 122.70859898 -116.99338853 121.33614103 -115.8125 119.9375 C-112.60783917 116.18084018 -109.13863938 112.74740777 -105.625 109.28125 C-103.64029658 107.26819368 -101.77653084 105.20803597 -99.9375 103.0625 C-96.68585372 99.26891267 -93.18036906 95.78857353 -89.625 92.28125 C-87.64029658 90.26819368 -85.77653084 88.20803597 -83.9375 86.0625 C-81.39058392 83.09109791 -78.72371141 80.3110599 -75.9375 77.5625 C-73.17189592 74.83420593 -70.52462969 72.07733166 -68 69.125 C-64.4928056 65.03191697 -60.68024842 61.29025296 -56.84765625 57.50390625 C-54.16895468 54.79047273 -51.69141882 51.95472977 -49.21484375 49.05859375 C-46.48772777 45.99583273 -43.54345363 43.16026507 -40.625 40.28125 C-38.64029658 38.26819368 -36.77653084 36.20803597 -34.9375 34.0625 C-31.68585372 30.26891267 -28.18036906 26.78857353 -24.625 23.28125 C-22.64029658 21.26819368 -20.77653084 19.20803597 -18.9375 17.0625 C-15.01091983 12.48606624 -10.7344601 8.28797647 -6.4375 4.0625 C-5.38949219 2.94294922 -5.38949219 2.94294922 -4.3203125 1.80078125 C-2.4375 0.0625 -2.4375 0.0625 0 0 Z " fill="#34383D" transform="translate(232.4375,173.9375)"/>
<path d="M0 0 C1.07556152 0.31275879 1.07556152 0.31275879 2.17285156 0.63183594 C38.61410306 11.27533839 73.77293698 28.95721724 100 57 C100.845625 57.845625 101.69125 58.69125 102.5625 59.5625 C103.366875 60.366875 104.17125 61.17125 105 62 C105.51062988 62.49177734 106.02125977 62.98355469 106.54736328 63.49023438 C110.87170064 67.70223525 114.67171303 72.12692138 118.3125 76.9375 C118.87155029 77.67403809 119.43060059 78.41057617 120.0065918 79.16943359 C125.49024012 86.49608193 130.39432971 94.09679072 135 102 C135.35400879 102.5995752 135.70801758 103.19915039 136.07275391 103.81689453 C145.53742299 120.01475852 151.51867003 137.84941539 156 156 C156.24621094 156.96292969 156.49242187 157.92585937 156.74609375 158.91796875 C158.21167226 165.27554726 158.20107696 171.49851149 158 178 C156.36223274 175.54334911 155.49047664 173.86086035 154.5546875 171.1484375 C154.28672363 170.38821289 154.01875977 169.62798828 153.74267578 168.84472656 C153.45634277 168.0297168 153.17000977 167.21470703 152.875 166.375 C133.15794442 111.80750299 91.32458374 69.26477124 39.11328125 44.66015625 C25.51016837 38.47632698 11.37914831 34.00553712 -3 30 C-3.95986816 29.7311499 -4.91973633 29.4622998 -5.90869141 29.18530273 C-13.93459754 27.0514682 -22.01276725 25.80769072 -30.25 24.8125 C-30.95809814 24.72628387 -31.66619629 24.64006775 -32.39575195 24.55123901 C-95.29842089 17.0772124 -159.72703666 32.6831991 -210 72 C-225.36470883 84.17999147 -239.58927804 98.02002268 -251 114 C-251.4842041 114.67756348 -251.9684082 115.35512695 -252.46728516 116.05322266 C-266.08059555 135.33036941 -275.67090727 155.63110015 -283 178 C-283.33 178 -283.66 178 -284 178 C-285.40907036 136.88076503 -260.96757676 94.42202376 -233.953125 65.140625 C-232.37097392 63.40658742 -230.89053119 61.65300618 -229.4375 59.8125 C-226.8654923 56.84479881 -224.13152117 54.37404767 -221.14453125 51.8359375 C-219.74466266 50.6375072 -218.36560168 49.4142098 -217.01171875 48.1640625 C-160.98810573 -3.53381016 -72.67719771 -21.787923 0 0 Z " fill="#FDFDFD" transform="translate(319,41)"/>
<path d="M0 0 C3.20790545 1.38277792 5.01354948 2.90270359 7.21875 5.59375 C11.07673266 10.1509406 15.2423193 14.31848532 19.5 18.5 C23.6311302 22.55722805 27.71452821 26.6002395 31.4921875 30.9921875 C35.31323963 35.43369635 39.44739162 39.52120096 43.625 43.625 C45.09880071 45.07303496 46.57021216 46.52350625 48.0390625 47.9765625 C49.07401855 48.9979834 49.07401855 48.9979834 50.12988281 50.04003906 C51.80241993 51.79292783 53.2166439 53.57514693 54.6484375 55.5234375 C56.75588939 58.27074129 56.75588939 58.27074129 59.77807617 58.33129883 C63.45588256 57.95312324 65.66733996 56.94949457 68.90234375 55.17578125 C70.59049194 54.26119141 70.59049194 54.26119141 72.31274414 53.328125 C73.52120369 52.65662345 74.72945041 51.98473879 75.9375 51.3125 C77.19798338 50.62277798 78.45897689 49.93398746 79.72045898 49.24609375 C90.18262385 43.52335836 100.55778098 37.64351216 110.92382812 31.74902344 C111.93896484 31.1718457 112.95410156 30.59466797 114 30 C114.57693604 29.67181274 115.15387207 29.34362549 115.74829102 29.00549316 C119.48516482 26.881106 123.22694173 24.76574402 126.97457886 22.66040039 C128.19397902 21.97344632 129.41171519 21.28352965 130.62771606 20.59057617 C132.31662546 19.62850188 134.01169266 18.6772617 135.70703125 17.7265625 C136.6813208 17.17564941 137.65561035 16.62473633 138.65942383 16.05712891 C139.43181396 15.70827637 140.2042041 15.35942383 141 15 C141.99 15.495 141.99 15.495 143 16 C141.82244141 17.16015625 141.82244141 17.16015625 140.62109375 18.34375 C135.46583468 23.44642953 130.41070718 28.5465412 125.70703125 34.07421875 C123.009003 37.11798975 120.08202267 39.9258425 117.1875 42.78125 C115.20279658 44.79430632 113.33903084 46.85446403 111.5 49 C108.24835372 52.79358733 104.74286906 56.27392647 101.1875 59.78125 C99.20279658 61.79430632 97.33903084 63.85446403 95.5 66 C92.95308392 68.97140209 90.28621141 71.7514401 87.5 74.5 C84.73439592 77.22829407 82.08712969 79.98516834 79.5625 82.9375 C76.0553056 87.03058303 72.24274842 90.77224704 68.41015625 94.55859375 C65.73910712 97.26427561 63.26734217 100.09005965 60.80078125 102.98046875 C57.9540374 106.17302096 54.88513414 109.13547967 51.8203125 112.1171875 C49.93616102 113.87753339 49.93616102 113.87753339 49 116 C42.16706565 112.93336716 37.6110944 106.60214316 32.81640625 101.03515625 C30.94771168 98.94141459 28.99955265 96.96873103 27 95 C23.74970017 91.79970478 20.75275755 88.45775424 17.78125 85 C15.9257479 82.91662922 13.98776899 80.95718793 12 79 C9.37583359 76.41122697 6.86191863 73.77696272 4.4375 71 C3.86902344 70.34902344 3.30054688 69.69804687 2.71484375 69.02734375 C1.53104687 67.62782078 0.3789361 66.20109229 -0.74609375 64.75390625 C-1.32488281 64.03074219 -1.90367187 63.30757812 -2.5 62.5625 C-3.0053125 61.90378906 -3.510625 61.24507812 -4.03125 60.56640625 C-6.93046687 58.25968807 -9.33738781 58.2261725 -13 58 C-16.07643886 58.98951631 -16.07643886 58.98951631 -19 60.7265625 C-20.12212891 61.33951172 -21.24425781 61.95246094 -22.40039062 62.58398438 C-23.60048212 63.26393177 -24.80034631 63.94428048 -26 64.625 C-27.25629867 65.31992144 -28.51347352 66.01326107 -29.77148438 66.70507812 C-33.52834215 68.77880885 -37.26565629 70.88606877 -41 73 C-42.53527344 73.8657666 -42.53527344 73.8657666 -44.1015625 74.74902344 C-47.81441778 76.84445981 -51.52450704 78.94463214 -55.22949219 81.05395508 C-62.55642235 85.21628317 -69.93271832 89.28210681 -77.34790039 93.28466797 C-78.60802907 93.96560004 -79.86699963 94.64868003 -81.12475586 95.33398438 C-82.87663043 96.28755118 -84.63352562 97.23187664 -86.390625 98.17578125 C-87.40157227 98.72145752 -88.41251953 99.26713379 -89.45410156 99.8293457 C-92 101 -92 101 -95 101 C-94.43152344 100.443125 -93.86304688 99.88625 -93.27734375 99.3125 C-89.58189696 95.66023873 -85.93975517 92.01340377 -82.5625 88.0625 C-79.0553056 83.96941697 -75.24274842 80.22775296 -71.41015625 76.44140625 C-68.73145468 73.72797273 -66.25391882 70.89222977 -63.77734375 67.99609375 C-61.05022777 64.93333273 -58.10595363 62.09776507 -55.1875 59.21875 C-53.20279658 57.20569368 -51.33903084 55.14553597 -49.5 53 C-46.24835372 49.20641267 -42.74286906 45.72607353 -39.1875 42.21875 C-37.20279658 40.20569368 -35.33903084 38.14553597 -33.5 36 C-30.24955349 32.20781241 -26.74550431 28.72864469 -23.19140625 25.22265625 C-20.58026478 22.57427925 -18.16924002 19.79119669 -15.75 16.96875 C-13.26662626 14.17495455 -10.5964421 11.5861662 -7.93359375 8.96484375 C-5.12186826 6.10767624 -2.5656279 3.07875348 0 0 Z " fill="#1298FD" transform="translate(231,188)"/>
<path d="M0 0 C0 3 0 3 -1.44946289 4.77416992 C-2.1171167 5.41974854 -2.78477051 6.06532715 -3.47265625 6.73046875 C-4.20806641 7.45169922 -4.94347656 8.17292969 -5.70117188 8.91601562 C-6.8700293 10.04040039 -6.8700293 10.04040039 -8.0625 11.1875 C-13.07467373 16.05364639 -17.92385456 20.94394991 -22.47436523 26.24731445 C-24.38291927 28.43990677 -26.41415845 30.47642238 -28.5 32.5 C-31.26560408 35.22829407 -33.91287031 37.98516834 -36.4375 40.9375 C-39.9446944 45.03058303 -43.75725158 48.77224704 -47.58984375 52.55859375 C-50.26854532 55.27202727 -52.74608118 58.10777023 -55.22265625 61.00390625 C-57.94977223 64.06666727 -60.89404637 66.90223493 -63.8125 69.78125 C-65.79720342 71.79430632 -67.66096916 73.85446403 -69.5 76 C-72.75164628 79.79358733 -76.25713094 83.27392647 -79.8125 86.78125 C-81.79720342 88.79430632 -83.66096916 90.85446403 -85.5 93 C-88.75164628 96.79358733 -92.25713094 100.27392647 -95.8125 103.78125 C-97.79720342 105.79430632 -99.66096916 107.85446403 -101.5 110 C-104.74405171 113.78472699 -108.23647551 117.26015314 -111.79296875 120.75 C-114.50670918 123.51657431 -116.96810549 126.44919794 -119.39453125 129.46875 C-121.23351632 131.22272116 -122.51919027 131.61254165 -125 132 C-125.61875 131.27296875 -125.61875 131.27296875 -126.25 130.53125 C-129.38585318 126.89142041 -132.57537817 123.37111211 -136 120 C-139.25029983 116.79970478 -142.24724245 113.45775424 -145.21875 110 C-147.70257428 107.21114467 -150.36711437 104.62313017 -153.02734375 102.00390625 C-155.57337829 99.41753849 -157.92021557 96.6846472 -160.28515625 93.93359375 C-162.49803342 91.43843612 -164.86369898 89.12488754 -167.2421875 86.7890625 C-169.73505472 84.25187764 -172.03411295 81.56058904 -174.35546875 78.8671875 C-176.47130895 76.46487962 -178.7024661 74.22791166 -181 72 C-186.88061549 73.60556278 -191.77362081 76.58472402 -197 79.625 C-206.24318077 84.93082584 -215.57985418 90.01893372 -225 95 C-235.08612366 100.33752564 -245.07481823 105.80963434 -254.9831543 111.47290039 C-261.80270468 115.35906143 -268.70583921 119.05328422 -275.67626953 122.66088867 C-280.69363584 125.26885 -285.54468413 128.04583095 -290.28515625 131.13671875 C-290.85105469 131.42160156 -291.41695313 131.70648438 -292 132 C-292.66 131.67 -293.32 131.34 -294 131 C-293.35933594 130.3709375 -292.71867187 129.741875 -292.05859375 129.09375 C-287.4466661 124.52993486 -282.99332773 119.92631502 -278.77734375 114.99609375 C-276.05022777 111.93333273 -273.10595363 109.09776507 -270.1875 106.21875 C-268.20279658 104.20569368 -266.33903084 102.14553597 -264.5 100 C-261.25248456 96.21123199 -257.75325772 92.73410777 -254.19921875 89.234375 C-252.1383752 87.14058723 -250.21650315 84.98604785 -248.3125 82.75 C-245.45092172 79.41038544 -242.43863607 76.73527869 -239 74 C-238.54592773 73.51515137 -238.09185547 73.03030273 -237.62402344 72.53076172 C-235.66000666 70.67953123 -233.65155579 69.58256744 -231.265625 68.3203125 C-229.83138184 67.55424683 -229.83138184 67.55424683 -228.36816406 66.77270508 C-227.33916992 66.2289624 -226.31017578 65.68521973 -225.25 65.125 C-215.52616464 59.92892736 -205.89237395 54.59757076 -196.31347656 49.13916016 C-195.41081055 48.62530762 -194.50814453 48.11145508 -193.578125 47.58203125 C-192.78825195 47.13061768 -191.99837891 46.6792041 -191.18457031 46.21411133 C-185.37777999 42.98689092 -185.37777999 42.98689092 -182.5234375 43.0859375 C-179.22830641 44.27952988 -177.86578025 45.94738895 -175.625 48.625 C-172.95779056 51.7338004 -170.31123844 54.76811936 -167.375 57.625 C-164.98271505 59.9732889 -162.74864464 62.39604517 -160.5625 64.9375 C-158.14382221 67.74576347 -155.64100317 70.39970593 -153 73 C-149.74970017 76.20029522 -146.75275755 79.54224576 -143.78125 83 C-141.30475846 85.78062208 -138.64870408 88.36141216 -135.99609375 90.97265625 C-133.32192633 93.6886893 -130.83069543 96.54331352 -128.34765625 99.43359375 C-126.52807087 101.74692872 -126.52807087 101.74692872 -123.65771484 102.25 C-120.46849919 101.95000397 -119.66913903 101.27049821 -117.4765625 99 C-116.85152832 98.36400879 -116.22649414 97.72801758 -115.58251953 97.07275391 C-114.93653809 96.38874512 -114.29055664 95.70473633 -113.625 95 C-112.95452637 94.3095459 -112.28405273 93.6190918 -111.59326172 92.90771484 C-107.80585993 88.98343016 -104.12010753 84.98843508 -100.6015625 80.8203125 C-97.94811123 77.80443862 -95.04600125 75.03862286 -92.1875 72.21875 C-90.20279658 70.20569368 -88.33903084 68.14553597 -86.5 66 C-83.31995344 62.28994568 -79.91238198 58.87022133 -76.40625 55.46875 C-74.42085871 53.43179011 -72.57522519 51.36103572 -70.7265625 49.203125 C-67.0230559 44.93643067 -63.02078508 41.08230417 -58.875 37.25 C-58.18535156 36.60417969 -57.49570312 35.95835937 -56.78515625 35.29296875 C-51.41324674 30.29082739 -46.21200638 25.9564921 -39.73046875 22.42578125 C-39.13633682 22.10023254 -38.5422049 21.77468384 -37.93006897 21.43927002 C-36.01818805 20.39272348 -34.10284558 19.35268948 -32.1875 18.3125 C-30.87500791 17.59490027 -29.56283415 16.876718 -28.25097656 16.15795898 C-25.67447142 14.74640335 -23.09708291 13.33648466 -20.51904297 11.92773438 C-16.08086244 9.49967015 -11.6601016 7.04117791 -7.25 4.5625 C-6.60828857 4.20389893 -5.96657715 3.84529785 -5.30541992 3.47583008 C-2.48120498 1.97644919 -2.48120498 1.97644919 0 0 Z " fill="#FDFDFD" transform="translate(402,215)"/>
<path d="M0 0 C0.99 0.495 0.99 0.495 2 1 C0.82244141 2.16015625 0.82244141 2.16015625 -0.37890625 3.34375 C-5.53416532 8.44642953 -10.58929282 13.5465412 -15.29296875 19.07421875 C-17.990997 22.11798975 -20.91797733 24.9258425 -23.8125 27.78125 C-25.79720342 29.79430632 -27.66096916 31.85446403 -29.5 34 C-32.75164628 37.79358733 -36.25713094 41.27392647 -39.8125 44.78125 C-41.79720342 46.79430632 -43.66096916 48.85446403 -45.5 51 C-48.04691608 53.97140209 -50.71378859 56.7514401 -53.5 59.5 C-56.26560408 62.22829407 -58.91287031 64.98516834 -61.4375 67.9375 C-64.9446944 72.03058303 -68.75725158 75.77224704 -72.58984375 79.55859375 C-75.26089288 82.26427561 -77.73265783 85.09005965 -80.19921875 87.98046875 C-83.0459626 91.17302096 -86.11486586 94.13547967 -89.1796875 97.1171875 C-91.06383898 98.87753339 -91.06383898 98.87753339 -92 101 C-98.83293435 97.93336716 -103.3889056 91.60214316 -108.18359375 86.03515625 C-110.05228832 83.94141459 -112.00044735 81.96873103 -114 80 C-117.25029983 76.79970478 -120.24724245 73.45775424 -123.21875 70 C-125.0742521 67.91662922 -127.01223101 65.95718793 -129 64 C-131.62416641 61.41122697 -134.13808137 58.77696272 -136.5625 56 C-137.13097656 55.34902344 -137.69945312 54.69804687 -138.28515625 54.02734375 C-139.46895313 52.62782078 -140.6210639 51.20109229 -141.74609375 49.75390625 C-142.32488281 49.03074219 -142.90367187 48.30757812 -143.5 47.5625 C-144.0053125 46.90378906 -144.510625 46.24507812 -145.03125 45.56640625 C-147.93046687 43.25968807 -150.33738781 43.2261725 -154 43 C-157.07643886 43.98951631 -157.07643886 43.98951631 -160 45.7265625 C-161.12212891 46.33951172 -162.24425781 46.95246094 -163.40039062 47.58398438 C-164.60048212 48.26393177 -165.80034631 48.94428048 -167 49.625 C-168.25629867 50.31992144 -169.51347352 51.01326107 -170.77148438 51.70507812 C-174.52834215 53.77880885 -178.26565629 55.88606877 -182 58 C-183.53527344 58.8657666 -183.53527344 58.8657666 -185.1015625 59.74902344 C-188.81441778 61.84445981 -192.52450704 63.94463214 -196.22949219 66.05395508 C-203.55642235 70.21628317 -210.93271832 74.28210681 -218.34790039 78.28466797 C-219.60802907 78.96560004 -220.86699963 79.64868003 -222.12475586 80.33398438 C-223.87663043 81.28755118 -225.63352562 82.23187664 -227.390625 83.17578125 C-228.40157227 83.72145752 -229.41251953 84.26713379 -230.45410156 84.8293457 C-233 86 -233 86 -236 86 C-235.43152344 85.443125 -234.86304688 84.88625 -234.27734375 84.3125 C-230.58189696 80.66023873 -226.93975517 77.01340377 -223.5625 73.0625 C-220.05650315 68.97081459 -216.24538109 65.23033117 -212.4140625 61.4453125 C-210.31066401 59.31468555 -208.32469755 57.14519577 -206.375 54.875 C-196.65910587 43.6678291 -196.65910587 43.6678291 -190.19921875 40.28125 C-188.74829834 39.51143799 -188.74829834 39.51143799 -187.26806641 38.72607422 C-186.18960449 38.15646973 -185.11114258 37.58686523 -184 37 C-182.14808513 35.99627977 -180.29954396 34.98652067 -178.45114136 33.97634888 C-175.8295246 32.5461632 -173.20127193 31.12842493 -170.57250977 29.71142578 C-169.2183073 28.9794689 -167.86579601 28.2443755 -166.51489258 27.50634766 C-164.53621686 26.42603484 -162.55203623 25.35652684 -160.56640625 24.2890625 C-159.96534561 23.95790436 -159.36428497 23.62674622 -158.74501038 23.28555298 C-155.45836 21.5342394 -153.83772575 21 -150 21 C-148.32421875 22.25 -148.32421875 22.25 -146.6875 24 C-146.08035156 24.64195312 -145.47320312 25.28390625 -144.84765625 25.9453125 C-142.49063041 28.56644483 -140.18275748 31.22720096 -137.8828125 33.8984375 C-135.83277726 36.18665111 -133.68704908 38.34260582 -131.5 40.5 C-128.0711721 43.88241399 -124.87951482 47.38070442 -121.74609375 51.03515625 C-119.27518611 53.81561832 -116.6183306 56.39118218 -113.96875 59 C-112.06013545 60.93891002 -110.27289448 62.93699551 -108.5 65 C-104.87321093 69.21603855 -100.96696038 73.10665332 -97 77 C-95.66550269 78.33216834 -94.33185596 79.66519093 -93 81 C-87.72506205 75.82058406 -82.5822825 70.61504565 -77.77734375 64.99609375 C-75.05022777 61.93333273 -72.10595363 59.09776507 -69.1875 56.21875 C-67.20279658 54.20569368 -65.33903084 52.14553597 -63.5 50 C-60.25075327 46.20921215 -56.74813968 42.73121576 -53.1953125 39.2265625 C-50.56582602 36.55964561 -48.13342844 33.75865732 -45.6953125 30.91796875 C-42.94019523 27.80100428 -39.9731582 24.90692448 -37 22 C-36.59523438 21.54399414 -36.19046875 21.08798828 -35.7734375 20.61816406 C-33.4112215 18.46277204 -30.85036339 17.10376909 -28.046875 15.56640625 C-27.46842834 15.24719711 -26.88998169 14.92798798 -26.29400635 14.59910583 C-24.44862134 13.58205728 -22.59946359 12.57210939 -20.75 11.5625 C-18.91929243 10.55684225 -17.08937697 9.54975677 -15.25964355 8.54232788 C-13.5256889 7.58911782 -11.78923992 6.64044957 -10.05273438 5.69189453 C-7.59113701 4.32762152 -5.17517659 2.9174413 -2.765625 1.46484375 C-1.85296875 0.98144531 -0.9403125 0.49804688 0 0 Z " fill="#2462FC" transform="translate(372,203)"/>
</svg>
